<svg width="28" height="14" viewBox="0 0 28 14" fill="none" xmlns="http://www.w3.org/2000/svg">
<path d="M4.8549 1.12589C4.36845 0.819342 3.70324 0.64379 3.0056 0.637851C2.30797 0.631912 1.63506 0.796074 1.1349 1.09422C0.63475 1.39237 0.348323 1.80008 0.338634 2.22766C0.328944 2.65525 0.596786 3.06767 1.08324 3.37422L7.12824 7.00005L1.08324 10.6259C0.841106 10.7731 0.64892 10.9482 0.517767 11.1411C0.386615 11.3341 0.319092 11.541 0.319092 11.7501C0.319092 11.9591 0.386615 12.166 0.517767 12.359C0.64892 12.5519 0.841106 12.727 1.08324 12.8742C1.32339 13.0226 1.60911 13.1404 1.92391 13.2208C2.23872 13.3012 2.57637 13.3426 2.9174 13.3426C3.25844 13.3426 3.59609 13.3012 3.91089 13.2208C4.2257 13.1404 4.51142 13.0226 4.75157 12.8742L12.5016 8.12422C12.7437 7.97703 12.9359 7.80191 13.067 7.60897C13.1982 7.41602 13.2657 7.20907 13.2657 7.00005C13.2657 6.79103 13.1982 6.58408 13.067 6.39114C12.9359 6.1982 12.7437 6.02308 12.5016 5.87589L4.8549 1.12589ZM26.8132 5.87589L19.0632 1.12589C18.5768 0.82774 17.917 0.660243 17.2291 0.660243C16.5411 0.660243 15.8814 0.82774 15.3949 1.12589C14.9085 1.42404 14.6352 1.82841 14.6352 2.25005C14.6352 2.6717 14.9085 3.07607 15.3949 3.37422L21.3366 7.00005L15.3949 10.6259C15.1528 10.7731 14.9606 10.9482 14.8294 11.1411C14.6983 11.3341 14.6308 11.541 14.6308 11.7501C14.6308 11.9591 14.6983 12.166 14.8294 12.359C14.9606 12.5519 15.1528 12.727 15.3949 12.8742C15.6351 13.0226 15.9208 13.1404 16.2356 13.2208C16.5504 13.3012 16.888 13.3426 17.2291 13.3426C17.5701 13.3426 17.9078 13.3012 18.2226 13.2208C18.5374 13.1404 18.8231 13.0226 19.0632 12.8742L26.8132 8.12422C27.0623 7.98125 27.2626 7.80947 27.4027 7.61878C27.5428 7.4281 27.6199 7.2223 27.6295 7.01325C27.6391 6.80421 27.581 6.59607 27.4587 6.40086C27.3363 6.20564 27.1521 6.02722 26.9166 5.87589H26.8132Z" fill="black"/>
</svg>
