<svg width="56" height="56" viewBox="0 0 56 56" fill="none" xmlns="http://www.w3.org/2000/svg">
<rect width="56" height="56" rx="5.25" fill="#22C55E"/>
<path d="M37 30H36V20H37C37.2652 20 37.5196 19.8946 37.7071 19.7071C37.8946 19.5196 38 19.2652 38 19C38 18.7348 37.8946 18.4804 37.7071 18.2929C37.5196 18.1054 37.2652 18 37 18H19C18.7348 18 18.4804 18.1054 18.2929 18.2929C18.1054 18.4804 18 18.7348 18 19C18 19.2652 18.1054 19.5196 18.2929 19.7071C18.4804 19.8946 18.7348 20 19 20H20V30H19C18.7348 30 18.4804 30.1054 18.2929 30.2929C18.1054 30.4804 18 30.7348 18 31C18 31.2652 18.1054 31.5196 18.2929 31.7071C18.4804 31.8946 18.7348 32 19 32H27V33.15L22.45 36.15C22.2633 36.2655 22.1199 36.4393 22.0418 36.6445C21.9637 36.8496 21.9552 37.0748 22.0178 37.2852C22.0804 37.4957 22.2104 37.6797 22.3879 37.8089C22.5654 37.938 22.7805 38.0052 23 38C23.1966 38.0022 23.389 37.9428 23.55 37.83L27 35.55V37C27 37.2652 27.1054 37.5196 27.2929 37.7071C27.4804 37.8946 27.7348 38 28 38C28.2652 38 28.5196 37.8946 28.7071 37.7071C28.8946 37.5196 29 37.2652 29 37V35.55L32.45 37.83C32.611 37.9428 32.8034 38.0022 33 38C33.2136 37.9984 33.4212 37.9283 33.5921 37.8002C33.7631 37.672 33.8885 37.4925 33.95 37.2879C34.0115 37.0832 34.0058 36.8643 33.9338 36.6631C33.8619 36.462 33.7273 36.2892 33.55 36.17L29 33.17V32H37C37.2652 32 37.5196 31.8946 37.7071 31.7071C37.8946 31.5196 38 31.2652 38 31C38 30.7348 37.8946 30.4804 37.7071 30.2929C37.5196 30.1054 37.2652 30 37 30ZM34 30H22V20H34V30Z" fill="black"/>
</svg>
