<svg width="56" height="57" viewBox="0 0 56 57" fill="none" xmlns="http://www.w3.org/2000/svg">
<rect y="0.419922" width="56" height="56" rx="5.25" fill="#22C55E"/>
<path d="M35.63 20.07C35.5138 19.976 35.3781 19.9093 35.2327 19.8746C35.0873 19.84 34.9361 19.8384 34.79 19.87C33.7214 20.0939 32.6183 20.0968 31.5486 19.8784C30.4789 19.66 29.4653 19.2249 28.57 18.6C28.4026 18.4839 28.2037 18.4216 28 18.4216C27.7963 18.4216 27.5974 18.4839 27.43 18.6C26.5348 19.2249 25.5211 19.66 24.4514 19.8784C23.3817 20.0968 22.2786 20.0939 21.21 19.87C21.0639 19.8384 20.9127 19.84 20.7673 19.8746C20.6219 19.9093 20.4862 19.976 20.37 20.07C20.254 20.1641 20.1605 20.283 20.0965 20.418C20.0325 20.553 19.9995 20.7006 20 20.85V28.3C19.9991 29.7337 20.3408 31.1469 20.9965 32.4219C21.6523 33.6969 22.6032 34.7968 23.77 35.63L27.42 38.23C27.5894 38.3506 27.7921 38.4154 28 38.4154C28.2079 38.4154 28.4106 38.3506 28.58 38.23L32.23 35.63C33.3968 34.7968 34.3477 33.6969 35.0035 32.4219C35.6592 31.1469 36.0009 29.7337 36 28.3V20.85C36.0005 20.7006 35.9675 20.553 35.9035 20.418C35.8395 20.283 35.746 20.1641 35.63 20.07ZM34 28.3C34.0008 29.4147 33.7353 30.5136 33.2257 31.505C32.716 32.4964 31.977 33.3518 31.07 34L28 36.19L24.93 34C24.023 33.3518 23.284 32.4964 22.7744 31.505C22.2647 30.5136 21.9992 29.4147 22 28.3V22C24.0964 22.1794 26.196 21.693 28 20.61C29.804 21.693 31.9036 22.1794 34 22V28.3ZM29.54 26.01L26.85 28.71L25.96 27.81C25.7717 27.6217 25.5163 27.5159 25.25 27.5159C24.9837 27.5159 24.7283 27.6217 24.54 27.81C24.3517 27.9983 24.2459 28.2537 24.2459 28.52C24.2459 28.7863 24.3517 29.0417 24.54 29.23L26.14 30.83C26.233 30.9237 26.3436 30.9981 26.4654 31.0489C26.5873 31.0996 26.718 31.1258 26.85 31.1258C26.982 31.1258 27.1127 31.0996 27.2346 31.0489C27.3564 30.9981 27.467 30.9237 27.56 30.83L31 27.42C31.1883 27.2317 31.2941 26.9763 31.2941 26.71C31.2941 26.4437 31.1883 26.1883 31 26C30.8117 25.8117 30.5563 25.7059 30.29 25.7059C30.0237 25.7059 29.7683 25.8117 29.58 26L29.54 26.01Z" fill="black"/>
</svg>
