<svg width="34" height="29" viewBox="0 0 34 29" fill="none" xmlns="http://www.w3.org/2000/svg">
<path d="M28.5996 8.81505H26.9499V4.59283C26.9499 3.47303 26.4285 2.39909 25.5004 1.60727C24.5723 0.815446 23.3135 0.370605 22.0009 0.370605H5.5042C4.19163 0.370605 2.93283 0.815446 2.00471 1.60727C1.07659 2.39909 0.555176 3.47303 0.555176 4.59283V21.4817C0.556802 21.7596 0.654796 22.0308 0.83681 22.2612C1.01882 22.4917 1.27671 22.671 1.57797 22.7765C1.77376 22.8553 1.98845 22.8939 2.20485 22.8891C2.42196 22.8902 2.63718 22.8547 2.83817 22.7847C3.03916 22.7146 3.22197 22.6114 3.37612 22.481L8.0117 18.5121H10.4532V20.5388C10.4532 21.6586 10.9746 22.7325 11.9027 23.5243C12.8309 24.3161 14.0897 24.761 15.4022 24.761H26.818L30.7277 28.1106C30.8818 28.2411 31.0647 28.3443 31.2656 28.4143C31.4666 28.4843 31.6819 28.5198 31.899 28.5188C32.1154 28.5235 32.3301 28.485 32.5258 28.4062C32.8271 28.3006 33.085 28.1213 33.267 27.8909C33.449 27.6604 33.547 27.3892 33.5486 27.1114V13.0373C33.5486 11.9175 33.0272 10.8435 32.0991 10.0517C31.171 9.25989 29.9122 8.81505 28.5996 8.81505ZM10.4532 13.0373V15.6973H7.33533C7.11822 15.6962 6.903 15.7317 6.70201 15.8017C6.50102 15.8718 6.31821 15.975 6.16406 16.1054L3.85452 18.0899V4.59283C3.85452 4.21956 4.02833 3.86158 4.3377 3.59764C4.64707 3.3337 5.06667 3.18542 5.5042 3.18542H22.0009C22.4384 3.18542 22.858 3.3337 23.1674 3.59764C23.4768 3.86158 23.6506 4.21956 23.6506 4.59283V8.81505H15.4022C14.0897 8.81505 12.8309 9.25989 11.9027 10.0517C10.9746 10.8435 10.4532 11.9175 10.4532 13.0373ZM30.2493 23.7195L28.5996 22.3121C28.4468 22.1791 28.2646 22.0733 28.0636 22.0008C27.8625 21.9284 27.6466 21.8906 27.4284 21.8899H15.4022C14.9647 21.8899 14.5451 21.7416 14.2357 21.4777C13.9264 21.2137 13.7526 20.8557 13.7526 20.4825V13.0373C13.7526 12.664 13.9264 12.306 14.2357 12.0421C14.5451 11.7782 14.9647 11.6299 15.4022 11.6299H28.5996C29.0371 11.6299 29.4567 11.7782 29.7661 12.0421C30.0755 12.306 30.2493 12.664 30.2493 13.0373V23.7195Z" fill="white"/>
</svg>
