<svg width="27" height="21" viewBox="0 0 27 21" fill="none" xmlns="http://www.w3.org/2000/svg">
<path d="M22.5416 0.166748H4.45825C3.43054 0.166748 2.44492 0.575006 1.71821 1.30171C0.99151 2.02841 0.583252 3.01403 0.583252 4.04175V16.9584C0.583252 17.9861 0.99151 18.9717 1.71821 19.6984C2.44492 20.4252 3.43054 20.8334 4.45825 20.8334H22.5416C23.5693 20.8334 24.5549 20.4252 25.2816 19.6984C26.0083 18.9717 26.4166 17.9861 26.4166 16.9584V4.04175C26.4166 3.01403 26.0083 2.02841 25.2816 1.30171C24.5549 0.575006 23.5693 0.166748 22.5416 0.166748ZM22.012 2.75008L14.417 10.3451C14.2969 10.4661 14.1541 10.5622 13.9967 10.6278C13.8393 10.6934 13.6704 10.7272 13.4999 10.7272C13.3294 10.7272 13.1606 10.6934 13.0032 10.6278C12.8458 10.5622 12.7029 10.4661 12.5828 10.3451L4.98784 2.75008H22.012ZM23.8333 16.9584C23.8333 17.301 23.6972 17.6295 23.4549 17.8718C23.2127 18.114 22.8842 18.2501 22.5416 18.2501H4.45825C4.11568 18.2501 3.78714 18.114 3.54491 17.8718C3.30267 17.6295 3.16659 17.301 3.16659 16.9584V4.57133L10.7616 12.1663C11.4882 12.892 12.473 13.2996 13.4999 13.2996C14.5268 13.2996 15.5117 12.892 16.2383 12.1663L23.8333 4.57133V16.9584Z" fill="black"/>
</svg>
