<svg width="27" height="27" viewBox="0 0 27 27" fill="none" xmlns="http://www.w3.org/2000/svg">
<path d="M23.1099 14.7916C22.8258 14.7916 22.5287 14.7012 22.2445 14.6366C21.6691 14.5098 21.1036 14.3414 20.5524 14.1329C19.9532 13.9149 19.2946 13.9262 18.7032 14.1646C18.1118 14.4031 17.6295 14.8518 17.3491 15.4245L17.0649 16.0058C15.8069 15.3059 14.6508 14.4367 13.6291 13.4224C12.6149 12.4007 11.7456 11.2447 11.0458 9.9866L11.5883 9.62493C12.161 9.34453 12.6097 8.86224 12.8482 8.27087C13.0866 7.67949 13.0979 7.02082 12.8799 6.4216C12.6749 5.86931 12.5066 5.30405 12.3762 4.72952C12.3116 4.44535 12.2599 4.14827 12.2212 3.85118C12.0643 2.94136 11.5878 2.11743 10.8774 1.52778C10.167 0.938133 9.26935 0.621509 8.3462 0.634931H4.4712C3.91453 0.629705 3.36327 0.744482 2.85495 0.97145C2.34662 1.19842 1.89317 1.53225 1.52546 1.95021C1.15775 2.36818 0.884413 2.86047 0.724057 3.39356C0.563701 3.92666 0.520091 4.48805 0.596197 5.03952C1.28432 10.4508 3.75565 15.4786 7.61983 19.3288C11.484 23.1789 16.5208 25.6319 21.9345 26.3004H22.4254C23.3779 26.3017 24.2975 25.9523 25.0087 25.3187C25.4173 24.9532 25.7438 24.5052 25.9664 24.0042C26.1891 23.5032 26.3029 22.9607 26.3004 22.4124V18.5374C26.2845 17.6402 25.9578 16.7763 25.376 16.0932C24.7941 15.41 23.9932 14.95 23.1099 14.7916ZM23.7558 22.5416C23.7555 22.725 23.7163 22.9062 23.6405 23.0733C23.5648 23.2403 23.4544 23.3893 23.3166 23.5104C23.1727 23.6357 23.004 23.7292 22.8215 23.7848C22.639 23.8405 22.4468 23.857 22.2574 23.8333C17.42 23.213 12.9268 21 9.48637 17.5432C6.04599 14.0865 3.85431 9.58274 3.25703 4.74243C3.23647 4.55323 3.25449 4.36182 3.30999 4.17977C3.36549 3.99772 3.45733 3.82882 3.57995 3.68327C3.70099 3.54549 3.84998 3.43506 4.01702 3.35934C4.18405 3.28361 4.3653 3.24433 4.5487 3.2441H8.4237C8.72407 3.23741 9.01738 3.33565 9.25313 3.5219C9.48889 3.70815 9.65234 3.97075 9.71536 4.26452C9.76703 4.61757 9.83161 4.96632 9.90911 5.31077C10.0583 5.99166 10.2569 6.66079 10.5033 7.31285L8.69495 8.15243C8.54033 8.22337 8.40125 8.32415 8.28569 8.44899C8.17013 8.57383 8.08037 8.72027 8.02156 8.87989C7.96275 9.03952 7.93606 9.20919 7.943 9.37916C7.94994 9.54913 7.9904 9.71605 8.06203 9.87035C9.921 13.8522 13.1218 17.0531 17.1037 18.912C17.4182 19.0412 17.7709 19.0412 18.0854 18.912C18.2465 18.8544 18.3945 18.7654 18.5209 18.6501C18.6473 18.5347 18.7495 18.3955 18.8216 18.2404L19.6224 16.432C20.2902 16.6708 20.9717 16.8692 21.6633 17.0262C22.0077 17.1037 22.3565 17.1683 22.7095 17.2199C23.0033 17.283 23.2659 17.4464 23.4521 17.6822C23.6384 17.9179 23.7366 18.2112 23.7299 18.5116L23.7558 22.5416Z" fill="black"/>
</svg>
