<svg width="26" height="28" viewBox="0 0 26 28" fill="none" xmlns="http://www.w3.org/2000/svg">
<path d="M25.5659 21.4375L21.7267 14.8075C22.5123 13.3646 22.9216 11.747 22.9167 10.1042C22.9167 7.4741 21.8719 4.95176 20.0122 3.09202C18.1524 1.23229 15.6301 0.1875 13 0.1875C10.37 0.1875 7.84761 1.23229 5.98788 3.09202C4.12814 4.95176 3.08335 7.4741 3.08335 10.1042C3.07848 11.747 3.48775 13.3646 4.27336 14.8075L0.434189 21.4375C0.309609 21.6533 0.244139 21.8981 0.244385 22.1472C0.244632 22.3964 0.310584 22.6411 0.435591 22.8566C0.560597 23.0721 0.740234 23.2509 0.95638 23.3748C1.17253 23.4988 1.41753 23.5635 1.66669 23.5625H5.73252L7.80085 27.0475C7.87058 27.163 7.95645 27.268 8.05585 27.3592C8.31847 27.6123 8.66861 27.7544 9.03335 27.7558H9.23169C9.44556 27.7266 9.64992 27.6488 9.82915 27.5285C10.0084 27.4082 10.1578 27.2485 10.2659 27.0617L13 22.3583L15.7342 27.1042C15.8439 27.2884 15.9939 27.4453 16.1731 27.5631C16.3522 27.6809 16.5558 27.7565 16.7684 27.7842H16.9667C17.3363 27.7864 17.6922 27.644 17.9584 27.3875C18.0536 27.3015 18.1349 27.2011 18.1992 27.09L20.2675 23.605H24.3334C24.583 23.606 24.8284 23.541 25.0449 23.4166C25.2613 23.2922 25.441 23.1129 25.5659 22.8967C25.6982 22.6763 25.7682 22.4241 25.7682 22.1671C25.7682 21.91 25.6982 21.6578 25.5659 21.4375ZM9.01919 23.605L7.75835 21.4942C7.6342 21.2847 7.45818 21.1108 7.24725 20.9893C7.03633 20.8677 6.79763 20.8025 6.55419 20.8H4.10335L6.12919 17.2867C7.52422 18.6309 9.28243 19.5371 11.1867 19.8933L9.01919 23.605ZM13 17.1875C11.5991 17.1875 10.2296 16.7721 9.06473 15.9937C7.89988 15.2154 6.992 14.1092 6.45587 12.8148C5.91975 11.5205 5.77948 10.0963 6.05279 8.72228C6.3261 7.34825 7.00073 6.08612 7.99135 5.09549C8.98197 4.10487 10.2441 3.43025 11.6181 3.15694C12.9922 2.88363 14.4164 3.0239 15.7107 3.56002C17.005 4.09614 18.1113 5.00403 18.8896 6.16888C19.6679 7.33373 20.0834 8.70322 20.0834 10.1042C20.0834 11.9828 19.3371 13.7845 18.0087 15.1128C16.6803 16.4412 14.8786 17.1875 13 17.1875ZM19.4459 20.8C19.2024 20.8025 18.9637 20.8677 18.7528 20.9893C18.5419 21.1108 18.3658 21.2847 18.2417 21.4942L16.9809 23.605L14.8275 19.8508C16.7251 19.4873 18.4768 18.5819 19.8709 17.2442L21.8967 20.7575L19.4459 20.8Z" fill="white"/>
</svg>
