<svg width="32" height="25" viewBox="0 0 32 25" fill="none" xmlns="http://www.w3.org/2000/svg">
<path d="M31.2351 9.28512L29.7351 8.46012L16.2351 0.960117H16.0701C15.9781 0.921235 15.8827 0.891102 15.7851 0.870117H15.5001H15.2301C15.1276 0.891116 15.0272 0.921236 14.9301 0.960117H14.7651L1.26506 8.46012C1.03421 8.59095 0.842202 8.78066 0.708613 9.00992C0.575023 9.23918 0.504639 9.49978 0.504639 9.76512C0.504639 10.0305 0.575023 10.2911 0.708613 10.5203C0.842202 10.7496 1.03421 10.9393 1.26506 11.0701L5.00006 13.1401V20.2501C5.00006 21.4436 5.47417 22.5882 6.31808 23.4321C7.162 24.276 8.30659 24.7501 9.50006 24.7501H21.5001C22.6935 24.7501 23.8381 24.276 24.682 23.4321C25.526 22.5882 26.0001 21.4436 26.0001 20.2501V13.1401L29.0001 11.4601V15.7501C29.0001 16.1479 29.1581 16.5295 29.4394 16.8108C29.7207 17.0921 30.1022 17.2501 30.5001 17.2501C30.8979 17.2501 31.2794 17.0921 31.5607 16.8108C31.842 16.5295 32.0001 16.1479 32.0001 15.7501V10.5901C31.9996 10.3243 31.9285 10.0634 31.7941 9.83412C31.6597 9.60482 31.4668 9.41536 31.2351 9.28512ZM23.0001 20.2501C23.0001 20.6479 22.842 21.0295 22.5607 21.3108C22.2794 21.5921 21.8979 21.7501 21.5001 21.7501H9.50006C9.10224 21.7501 8.72071 21.5921 8.4394 21.3108C8.1581 21.0295 8.00006 20.6479 8.00006 20.2501V14.8051L14.7651 18.5551L14.9901 18.6451H15.1251C15.2496 18.6608 15.3756 18.6608 15.5001 18.6451C15.6246 18.6608 15.7506 18.6608 15.8751 18.6451H16.0101C16.0897 18.6283 16.1658 18.5979 16.2351 18.5551L23.0001 14.8051V20.2501ZM15.5001 15.5401L5.09006 9.75012L15.5001 3.96012L25.9101 9.75012L15.5001 15.5401Z" fill="white"/>
</svg>
