<svg width="56" height="57" viewBox="0 0 56 57" fill="none" xmlns="http://www.w3.org/2000/svg">
<rect y="0.445801" width="56" height="56" rx="5.25" fill="#22C55E"/>
<path d="M26.25 29.3208H20.125C19.8929 29.3208 19.6704 29.413 19.5063 29.5771C19.3422 29.7412 19.25 29.9637 19.25 30.1958V36.3208C19.25 36.5529 19.3422 36.7754 19.5063 36.9395C19.6704 37.1036 19.8929 37.1958 20.125 37.1958H26.25C26.4821 37.1958 26.7046 37.1036 26.8687 36.9395C27.0328 36.7754 27.125 36.5529 27.125 36.3208V30.1958C27.125 29.9637 27.0328 29.7412 26.8687 29.5771C26.7046 29.413 26.4821 29.3208 26.25 29.3208ZM25.375 35.4458H21V31.0708H25.375V35.4458ZM35.875 19.6958H29.75C29.5179 19.6958 29.2954 19.788 29.1313 19.9521C28.9672 20.1162 28.875 20.3387 28.875 20.5708V26.6958C28.875 26.9279 28.9672 27.1504 29.1313 27.3145C29.2954 27.4786 29.5179 27.5708 29.75 27.5708H35.875C36.1071 27.5708 36.3296 27.4786 36.4937 27.3145C36.6578 27.1504 36.75 26.9279 36.75 26.6958V20.5708C36.75 20.3387 36.6578 20.1162 36.4937 19.9521C36.3296 19.788 36.1071 19.6958 35.875 19.6958ZM35 25.8208H30.625V21.4458H35V25.8208ZM35.875 29.3208H29.75C29.5179 29.3208 29.2954 29.413 29.1313 29.5771C28.9672 29.7412 28.875 29.9637 28.875 30.1958V36.3208C28.875 36.5529 28.9672 36.7754 29.1313 36.9395C29.2954 37.1036 29.5179 37.1958 29.75 37.1958H35.875C36.1071 37.1958 36.3296 37.1036 36.4937 36.9395C36.6578 36.7754 36.75 36.5529 36.75 36.3208V30.1958C36.75 29.9637 36.6578 29.7412 36.4937 29.5771C36.3296 29.413 36.1071 29.3208 35.875 29.3208ZM35 35.4458H30.625V31.0708H35V35.4458ZM26.25 19.6958H20.125C19.8929 19.6958 19.6704 19.788 19.5063 19.9521C19.3422 20.1162 19.25 20.3387 19.25 20.5708V26.6958C19.25 26.9279 19.3422 27.1504 19.5063 27.3145C19.6704 27.4786 19.8929 27.5708 20.125 27.5708H26.25C26.4821 27.5708 26.7046 27.4786 26.8687 27.3145C27.0328 27.1504 27.125 26.9279 27.125 26.6958V20.5708C27.125 20.3387 27.0328 20.1162 26.8687 19.9521C26.7046 19.788 26.4821 19.6958 26.25 19.6958ZM25.375 25.8208H21V21.4458H25.375V25.8208Z" fill="#2A3342"/>
</svg>
