<svg width="28" height="28" viewBox="0 0 28 28" fill="none" xmlns="http://www.w3.org/2000/svg">
<path d="M17.1468 16.9734C16.2554 17.692 15.145 18.0839 14.0001 18.0839C12.8552 18.0839 11.7447 17.692 10.8534 16.9734C10.5811 16.7471 10.2301 16.6382 9.87752 16.6707C9.52495 16.7032 9.19974 16.8745 8.97342 17.1468C8.7471 17.419 8.63822 17.7701 8.67073 18.1226C8.70323 18.4752 8.87446 18.8004 9.14675 19.0268C10.5085 20.1636 12.2262 20.7863 14.0001 20.7863C15.774 20.7863 17.4916 20.1636 18.8534 19.0268C19.1257 18.8004 19.2969 18.4752 19.3294 18.1226C19.362 17.7701 19.2531 17.419 19.0268 17.1468C18.9147 17.0119 18.7772 16.9005 18.622 16.8188C18.4669 16.7371 18.2972 16.6868 18.1227 16.6707C17.7701 16.6382 17.419 16.7471 17.1468 16.9734V16.9734ZM12.0001 11.3334C12.0001 10.9379 11.8828 10.5512 11.663 10.2223C11.4433 9.89338 11.1309 9.63703 10.7655 9.48566C10.4 9.33428 9.99787 9.29468 9.60991 9.37185C9.22194 9.44902 8.86558 9.6395 8.58587 9.9192C8.30617 10.1989 8.11569 10.5553 8.03852 10.9432C7.96135 11.3312 8.00095 11.7333 8.15233 12.0988C8.3037 12.4642 8.56005 12.7766 8.88895 12.9964C9.21785 13.2161 9.60452 13.3334 10.0001 13.3334C10.5305 13.3334 11.0392 13.1227 11.4143 12.7476C11.7894 12.3726 12.0001 11.8639 12.0001 11.3334ZM18.0001 10.0001H16.6668C16.3131 10.0001 15.974 10.1406 15.7239 10.3906C15.4739 10.6407 15.3334 10.9798 15.3334 11.3334C15.3334 11.687 15.4739 12.0262 15.7239 12.2762C15.974 12.5263 16.3131 12.6668 16.6668 12.6668H18.0001C18.3537 12.6668 18.6928 12.5263 18.9429 12.2762C19.1929 12.0262 19.3334 11.687 19.3334 11.3334C19.3334 10.9798 19.1929 10.6407 18.9429 10.3906C18.6928 10.1406 18.3537 10.0001 18.0001 10.0001ZM14.0001 0.666748C11.363 0.666748 8.78514 1.44873 6.59248 2.91382C4.39983 4.37891 2.69086 6.46129 1.68169 8.89764C0.672525 11.334 0.408481 14.0149 0.92295 16.6013C1.43742 19.1877 2.7073 21.5635 4.572 23.4282C6.4367 25.2929 8.81247 26.5628 11.3989 27.0772C13.9853 27.5917 16.6662 27.3277 19.1025 26.3185C21.5389 25.3093 23.6213 23.6003 25.0863 21.4077C26.5514 19.215 27.3334 16.6372 27.3334 14.0001C27.3334 12.2491 26.9885 10.5153 26.3185 8.89764C25.6484 7.27996 24.6663 5.81011 23.4282 4.57199C22.1901 3.33388 20.7202 2.35175 19.1025 1.68169C17.4849 1.01163 15.751 0.666748 14.0001 0.666748V0.666748ZM14.0001 24.6668C11.8904 24.6668 9.82813 24.0412 8.074 22.8691C6.31988 21.697 4.95271 20.0311 4.14537 18.082C3.33804 16.133 3.1268 13.9883 3.53838 11.9191C3.94995 9.84999 4.96585 7.94937 6.45762 6.45761C7.94938 4.96585 9.84999 3.94995 11.9191 3.53837C13.9883 3.1268 16.133 3.33803 18.082 4.14537C20.0311 4.9527 21.697 6.31988 22.8691 8.074C24.0412 9.82813 24.6668 11.8904 24.6668 14.0001C24.6668 16.8291 23.5429 19.5422 21.5426 21.5426C19.5422 23.5429 16.8291 24.6668 14.0001 24.6668V24.6668Z" fill="white"/>
</svg>
